<svg width="35" height="28" viewBox="0 0 35 28" fill="none" xmlns="http://www.w3.org/2000/svg">
<path d="M31.2745 27.2693L3.46198 27.3865C1.61917 27.3972 0.0959223 25.8846 0.0852703 24.0418L5.59186e-05 3.49393C-0.0105961 1.65112 1.502 0.127881 3.3448 0.117229L31.1573 5.59186e-05C33.0001 -0.0105961 34.5234 1.502 34.534 3.3448L34.6193 23.8926C34.6299 25.7461 33.1173 27.2693 31.2745 27.2693Z" fill="#F6C859"/>
<path d="M13.379 23.7115C13.2299 23.7115 13.0914 23.637 13.0169 23.4985C12.9103 23.3068 12.9956 23.0618 13.1873 22.9552C13.7625 22.657 14.5508 22.0924 14.9981 21.1337C15.5734 19.9088 15.4136 18.5773 15.1686 18.4707C15.1047 18.4388 14.8703 18.5666 14.7212 18.6412C14.3484 18.8329 13.8264 19.0992 13.2192 18.8968C12.6227 18.6944 12.3351 18.1725 12.1967 17.9168C11.2806 16.2658 10.9823 11.9517 11.9304 9.79996C12.2499 9.08627 12.676 8.66019 13.2086 8.53236C13.7519 8.40454 14.1992 8.62823 14.5614 8.80932C14.8597 8.95845 15.0088 9.02235 15.094 8.96909C15.4668 8.7454 15.4562 7.37129 14.9236 6.28478C14.4655 5.32609 13.6773 4.77219 13.0914 4.47393C12.8997 4.37806 12.8145 4.13306 12.921 3.94133C13.0169 3.74959 13.2619 3.66437 13.4536 3.77089C14.146 4.12241 15.0834 4.78284 15.6373 5.94391C16.1912 7.09433 16.4575 9.07561 15.4988 9.66148C15.0195 9.95973 14.5508 9.72539 14.1886 9.53366C13.9116 9.39518 13.6453 9.2567 13.3897 9.32061C13.0382 9.40583 12.7932 9.81061 12.6547 10.1302C11.8238 12.0049 12.0795 16.0847 12.889 17.5333C13.0275 17.7783 13.1873 18.0446 13.4749 18.1405C13.7412 18.2364 13.9968 18.1192 14.359 17.9275C14.7105 17.7464 15.1047 17.544 15.5201 17.7464C16.4149 18.1725 16.3616 20.1005 15.7225 21.4746C15.1792 22.6463 14.2419 23.3068 13.5495 23.6689C13.5069 23.7009 13.4429 23.7115 13.379 23.7115Z" fill="#7D662D"/>
<path d="M12.1221 10.5243L4.92132 10.5563C4.69763 10.5563 4.51654 10.3752 4.51654 10.1621C4.51654 9.93844 4.69763 9.75736 4.91067 9.75736L12.1115 9.7254C12.3352 9.7254 12.5162 9.90648 12.5162 10.1195C12.5269 10.3432 12.3458 10.5243 12.1221 10.5243Z" fill="#7D662D"/>
<path d="M12.1541 17.7251L4.95328 17.757C4.72958 17.757 4.54849 17.5759 4.54849 17.3629C4.54849 17.1392 4.72958 16.9581 4.94262 16.9581L12.1434 16.9261C12.3671 16.9261 12.5482 17.1072 12.5482 17.3203C12.5482 17.5333 12.3778 17.7251 12.1541 17.7251Z" fill="#7D662D"/>
<path d="M21.7729 23.6796C21.7089 23.6796 21.645 23.6689 21.5918 23.637C20.8994 23.2855 19.962 22.625 19.4081 21.464C18.7477 20.1005 18.6838 18.1725 19.5785 17.7357C19.994 17.5334 20.3881 17.7357 20.7396 17.9062C21.1018 18.0873 21.3574 18.2044 21.6237 18.1086C21.922 18.002 22.0924 17.6825 22.1989 17.4907C22.9872 16.0314 23.2109 11.9517 22.3694 10.0876C22.2202 9.768 21.9752 9.36323 21.6237 9.28866C21.4107 9.2354 21.2722 9.02236 21.3255 8.80932C21.3787 8.59628 21.5918 8.45781 21.8048 8.51107C22.3374 8.63889 22.7741 9.05431 23.0937 9.768C24.063 11.9091 23.7967 16.2232 22.902 17.8849C22.7635 18.1405 22.4759 18.6731 21.89 18.8755C21.2829 19.0886 20.7609 18.8223 20.3881 18.6305C20.239 18.556 19.994 18.4388 19.9407 18.4601C19.6957 18.5773 19.5572 19.9088 20.1431 21.1231C20.6011 22.0818 21.3894 22.6357 21.9752 22.9339C22.167 23.0298 22.2522 23.2748 22.1457 23.4665C22.0605 23.5944 21.922 23.6796 21.7729 23.6796Z" fill="#7D662D"/>
<path d="M20.1112 8.89453C19.9407 8.89453 19.7916 8.78802 19.7277 8.61759C18.8649 6.05044 20.8568 4.0585 21.5066 3.72829C21.6983 3.62177 21.9433 3.70699 22.0498 3.89872C22.1563 4.09046 22.0711 4.33545 21.8794 4.44197C21.5918 4.5911 19.7596 6.17826 20.4946 8.36193C20.5692 8.57497 20.452 8.79867 20.239 8.87323C20.1964 8.88389 20.1538 8.89453 20.1112 8.89453Z" fill="#7D662D"/>
<path d="M30.1134 10.4498L22.9127 10.4817C22.689 10.4817 22.5079 10.3007 22.5079 10.0876C22.5079 9.86392 22.689 9.68283 22.902 9.68283L30.1028 9.65088C30.3265 9.65088 30.5076 9.83196 30.5076 10.045C30.5182 10.2687 30.3371 10.4498 30.1134 10.4498Z" fill="#7D662D"/>
<path d="M30.1454 17.6506L22.9446 17.6825C22.7209 17.6825 22.5398 17.5015 22.5398 17.2884C22.5398 17.0647 22.7209 16.8836 22.9339 16.8836L30.1347 16.8517C30.3584 16.8517 30.5395 17.0328 30.5395 17.2458C30.5501 17.4695 30.3691 17.6506 30.1454 17.6506Z" fill="#7D662D"/>
</svg>
