<svg width="31" height="42" viewBox="0 0 31 42" fill="none" xmlns="http://www.w3.org/2000/svg">
<g clip-path="url(#clip0_826_19982)">
<rect x="1" y="1" width="29.0909" height="40" rx="4" fill="url(#paint0_linear_826_19982)"/>
<path fill-rule="evenodd" clip-rule="evenodd" d="M30.6971 27.5249L24.7619 21.1661L30.722 14.8072L30.236 14.2871L24.1325 20.7984L20.836 20.7984L20.8475 14.9149L20.8489 14.1795L20.8806 -2L20.1927 -2L20.161 14.1795L10.5302 14.1795L10.5619 -2L9.87403 -2L9.84233 14.1795L9.84089 14.9149L9.82937 20.7984L6.5322 20.7984L0.454594 14.2871L-0.032927 14.8072L5.90259 21.1661L-0.0578422 27.5249L0.427641 28.045L6.53076 21.5338L9.82793 21.5338L9.8164 27.4172L9.81496 28.1527L9.78326 44.3321L10.4712 44.3321L10.5029 28.1527L20.1337 28.1527L20.102 44.3321L20.7899 44.3321L20.8223 27.7849C20.8227 27.5818 20.6691 27.4172 20.479 27.4172L10.5043 27.4172L10.5166 21.1661L10.5288 14.9149L20.1596 14.9149L20.1473 21.1661C20.1469 21.3692 20.3006 21.5338 20.4906 21.5338L24.131 21.5338L30.209 28.045L30.6971 27.5249Z" fill="#47453F"/>
</g>
<rect x="1" y="1" width="29.0909" height="40" rx="4" stroke="#47453F" stroke-width="0.6"/>
<defs>
<linearGradient id="paint0_linear_826_19982" x1="1.2346" y1="1" x2="49.397" y2="43.0415" gradientUnits="userSpaceOnUse">
<stop stop-color="#F8ECC1"/>
<stop offset="1" stop-color="#C8AC48"/>
</linearGradient>
<clipPath id="clip0_826_19982">
<rect x="1" y="1" width="29.0909" height="40" rx="4" fill="white"/>
</clipPath>
</defs>
</svg>
