<svg width="46" height="28" viewBox="0 0 46 28" fill="none" xmlns="http://www.w3.org/2000/svg">
<path d="M13.9597 27.3515C21.484 27.3515 27.5837 21.2518 27.5837 13.7275C27.5837 6.20318 21.484 0.103516 13.9597 0.103516C6.43537 0.103516 0.335693 6.20318 0.335693 13.7275C0.335693 21.2518 6.43537 27.3515 13.9597 27.3515Z" fill="white"/>
<path d="M32.1854 27.2774C24.6757 27.3093 18.5294 21.227 18.4975 13.7066C18.4655 6.18628 24.5585 0.0506972 32.0682 0.0187411C39.5779 -0.0132151 45.7241 6.06911 45.7561 13.5895C45.788 21.1098 39.7057 27.2454 32.1854 27.2774ZM32.0895 4.55652C27.083 4.57782 23.0246 8.66821 23.0459 13.6853C23.0672 18.6918 27.1576 22.7502 32.1747 22.7289C37.1812 22.7076 41.2396 18.6172 41.2183 13.6001C41.197 8.59365 37.096 4.53521 32.0895 4.55652Z" fill="white"/>
</svg>
