<svg width="15" height="10" viewBox="0 0 15 10" fill="none" xmlns="http://www.w3.org/2000/svg">
<path d="M9.74087 5.04587C9.74087 7.52257 7.73311 9.53033 5.2564 9.53033C2.7797 9.53033 0.771941 7.52257 0.771941 5.04587C0.771942 2.56916 2.77971 0.561402 5.25641 0.561402C7.73311 0.561403 9.74087 2.56917 9.74087 5.04587ZM1.87848 5.04587C1.87848 6.91144 3.39083 8.42379 5.2564 8.42379C7.12198 8.42379 8.63433 6.91144 8.63433 5.04587C8.63433 3.18029 7.12198 1.66794 5.25641 1.66794C3.39083 1.66794 1.87848 3.18029 1.87848 5.04587Z" fill="white"/>
<path d="M12.9118 8.2168C12.2846 8.84396 11.4856 9.27107 10.6157 9.4441C9.74579 9.61714 8.84411 9.52833 8.02468 9.18891C7.20525 8.84949 6.50487 8.27471 6.01212 7.53724C5.51936 6.79977 5.25635 5.93275 5.25635 5.0458C5.25635 4.15886 5.51936 3.29184 6.01212 2.55437C6.50487 1.8169 7.20525 1.24212 8.02468 0.9027C8.84411 0.563282 9.74579 0.474475 10.6157 0.647509C11.4856 0.820543 12.2846 1.24765 12.9118 1.87481L12.1673 2.61936C11.6874 2.13945 11.0759 1.81263 10.4103 1.68023C9.74462 1.54782 9.05466 1.61578 8.42763 1.8755C7.8006 2.13522 7.26467 2.57505 6.88761 3.13936C6.51055 3.70367 6.3093 4.36712 6.3093 5.0458C6.3093 5.72449 6.51055 6.38794 6.88761 6.95225C7.26467 7.51656 7.8006 7.95639 8.42763 8.21611C9.05465 8.47583 9.74462 8.54379 10.4103 8.41138C11.0759 8.27898 11.6874 7.95216 12.1673 7.47225L12.9118 8.2168Z" fill="white"/>
</svg>
