<svg width="20" height="24" viewBox="0 0 20 24" fill="none" xmlns="http://www.w3.org/2000/svg">
<path d="M15.1819 23.3838C14.8047 23.275 14.4228 22.8272 14.3442 22.3998C14.2933 22.1216 14.358 21.9285 14.7609 21.1569C16.3906 18.0395 17.105 15.1704 17.1186 11.6882C17.1317 8.32274 16.5205 5.7042 14.985 2.56577C14.6561 1.89218 14.3865 1.26657 14.3868 1.17609C14.3881 0.842188 14.671 0.357989 14.9751 0.16801C15.3924 -0.0923039 16.0909 -0.0435877 16.4242 0.268849C16.5516 0.388937 16.884 0.934736 17.1614 1.48113C18.2591 3.64553 19.0081 6.02019 19.3731 8.49184C19.599 10.0214 19.6338 12.9204 19.4425 14.3208C19.092 16.9039 18.3976 19.2089 17.2931 21.4668C16.6247 22.8318 16.2077 23.3933 15.8583 23.3933C15.7884 23.3933 15.6754 23.4106 15.6069 23.4318C15.5369 23.4527 15.3452 23.4312 15.1819 23.3838ZM10.6862 21.037C10.1085 20.8691 9.69352 20.1611 9.8621 19.6307C9.90274 19.5023 10.1786 18.9108 10.4738 18.3163C11.7221 15.7989 12.2485 13.1002 12.0061 10.4507C11.8079 8.27373 11.4208 6.90064 10.4414 4.89172C9.78507 3.54395 9.75467 3.33502 10.1418 2.79247C10.5111 2.27644 11.4243 2.19277 11.9028 2.63122C12.2346 2.93507 13.2595 5.08688 13.6547 6.30553C14.9607 10.3385 14.7416 14.6677 13.0327 18.6294C12.1581 20.6589 11.5461 21.2863 10.6862 21.037ZM6.05093 18.6571C5.69325 18.4963 5.38697 18.1193 5.3052 17.7394C5.25406 17.5079 5.34426 17.2518 5.77132 16.3951C7.34467 13.2484 7.37284 10.2175 5.85944 7.14408C5.19419 5.79408 5.18036 5.52548 5.74888 4.99315C6.0309 4.73047 6.14854 4.68397 6.54253 4.68397C7.20115 4.68397 7.54032 5.01358 8.12437 6.21772C9.02257 8.06983 9.38651 9.67658 9.37551 11.7351C9.36428 13.8511 9.0122 15.3035 8.03821 17.2566C7.4793 18.3749 7.20459 18.6702 6.64974 18.7458C6.48016 18.7689 6.21122 18.7289 6.05093 18.6571ZM1.72574 16.4402C1.44223 16.3233 1.12111 15.9389 1.02577 15.6049C0.920183 15.2314 1.00906 14.935 1.43699 14.2379C1.9876 13.3411 2.11734 12.8599 2.12191 11.688C2.12648 10.5162 2.00049 10.0348 1.45687 9.13804C1.27222 8.83404 1.0878 8.46978 1.04523 8.32867C0.8721 7.73756 1.36853 7.01333 2.03358 6.88924C2.59746 6.78396 2.98304 7.0342 3.49728 7.83899C4.98683 10.1691 4.97469 13.2817 3.46705 15.592C2.93459 16.4071 2.34323 16.6951 1.72574 16.4402Z" fill="#0D1218"/>
</svg>
